<svg width="48" height="56" viewBox="0 0 48 56" fill="none" xmlns="http://www.w3.org/2000/svg">
<path d="M25.4375 2L1 14.4628V17.9008V41.5372L25.4375 54L47 41.5372V14.4628L25.4375 2Z" fill="#828282" stroke="#4F4F4F" stroke-width="2"/>
<g filter="url(#filter0_d_529_135)">
<path d="M21.9159 25.724C22.0679 25.724 22.1959 25.792 22.2999 25.928L26.4759 31.256C26.5399 31.344 26.5719 31.44 26.5719 31.544C26.5719 31.68 26.5239 31.796 26.4279 31.892C26.3319 31.988 26.2199 32.036 26.0919 32.036C25.9399 32.036 25.8079 31.964 25.6959 31.82L21.5199 26.504C21.4559 26.416 21.4239 26.32 21.4239 26.216C21.4239 26.072 21.4719 25.956 21.5679 25.868C21.6719 25.772 21.7879 25.724 21.9159 25.724ZM21.9159 32.024C21.8119 32.024 21.7079 31.984 21.6039 31.904C21.4999 31.824 21.4479 31.72 21.4479 31.592C21.4479 31.488 21.4879 31.388 21.5679 31.292L23.5359 28.808L24.0399 29.6L22.2999 31.832C22.2039 31.96 22.0759 32.024 21.9159 32.024ZM26.0919 25.724C26.2279 25.724 26.3359 25.768 26.4159 25.856C26.5039 25.944 26.5479 26.044 26.5479 26.156C26.5479 26.204 26.5359 26.256 26.5119 26.312C26.4959 26.368 26.4679 26.42 26.4279 26.468L24.4719 28.976L23.9679 28.244L25.6959 25.94C25.8079 25.796 25.9399 25.724 26.0919 25.724Z" fill="white"/>
</g>
<path d="M9.836 35C9.716 35 9.614 34.958 9.53 34.874C9.446 34.79 9.404 34.688 9.404 34.568V22.85C9.404 22.718 9.446 22.61 9.53 22.526C9.614 22.442 9.716 22.4 9.836 22.4H14.498C15.95 22.4 17.096 22.736 17.936 23.408C18.776 24.08 19.196 25.058 19.196 26.342C19.196 27.23 18.974 27.968 18.53 28.556C18.098 29.144 17.516 29.57 16.784 29.834L19.412 34.424C19.448 34.496 19.466 34.562 19.466 34.622C19.466 34.73 19.424 34.82 19.34 34.892C19.268 34.964 19.184 35 19.088 35H17.45C17.246 35 17.09 34.946 16.982 34.838C16.874 34.73 16.79 34.622 16.73 34.514L14.408 30.248H11.906V34.568C11.906 34.688 11.864 34.79 11.78 34.874C11.708 34.958 11.606 35 11.474 35H9.836ZM11.906 28.214H14.444C15.176 28.214 15.722 28.052 16.082 27.728C16.442 27.392 16.622 26.924 16.622 26.324C16.622 25.724 16.442 25.256 16.082 24.92C15.734 24.572 15.188 24.398 14.444 24.398H11.906V28.214ZM30.4439 35C30.3239 35 30.2219 34.958 30.1379 34.874C30.0539 34.79 30.0119 34.688 30.0119 34.568V22.85C30.0119 22.718 30.0539 22.61 30.1379 22.526C30.2219 22.442 30.3239 22.4 30.4439 22.4H35.2679C36.2039 22.4 37.0199 22.55 37.7159 22.85C38.4119 23.138 38.9519 23.582 39.3359 24.182C39.7199 24.77 39.9119 25.508 39.9119 26.396C39.9119 27.296 39.7199 28.04 39.3359 28.628C38.9519 29.204 38.4119 29.636 37.7159 29.924C37.0199 30.212 36.2039 30.356 35.2679 30.356H32.5859V34.568C32.5859 34.688 32.5439 34.79 32.4599 34.874C32.3879 34.958 32.2859 35 32.1539 35H30.4439ZM32.5499 28.358H35.1779C35.8739 28.358 36.4079 28.196 36.7799 27.872C37.1519 27.536 37.3379 27.044 37.3379 26.396C37.3379 25.796 37.1639 25.316 36.8159 24.956C36.4679 24.584 35.9219 24.398 35.1779 24.398H32.5499V28.358Z" fill="white"/>
<defs>
<filter id="filter0_d_529_135" x="17.4239" y="25.724" width="13.148" height="14.312" filterUnits="userSpaceOnUse" color-interpolation-filters="sRGB">
<feFlood flood-opacity="0" result="BackgroundImageFix"/>
<feColorMatrix in="SourceAlpha" type="matrix" values="0 0 0 0 0 0 0 0 0 0 0 0 0 0 0 0 0 0 127 0" result="hardAlpha"/>
<feOffset dy="4"/>
<feGaussianBlur stdDeviation="2"/>
<feComposite in2="hardAlpha" operator="out"/>
<feColorMatrix type="matrix" values="0 0 0 0 0 0 0 0 0 0 0 0 0 0 0 0 0 0 0.25 0"/>
<feBlend mode="normal" in2="BackgroundImageFix" result="effect1_dropShadow_529_135"/>
<feBlend mode="normal" in="SourceGraphic" in2="effect1_dropShadow_529_135" result="shape"/>
</filter>
</defs>
</svg>
